<?xml version="1.0" encoding="UTF-8"?>
<svg width="205px" height="52px" viewBox="0 0 205 52" version="1.1" xmlns="http://www.w3.org/2000/svg" xmlns:xlink="http://www.w3.org/1999/xlink">
    <!-- Generator: Sketch 60 (88103) - https://sketch.com -->
    <title>Group 31 Copy</title>
    <desc>Created with Sketch.</desc>
    <defs>
        <radialGradient cx="50%" cy="30.7513212%" fx="50%" fy="30.7513212%" r="72.4891024%" id="radialGradient-1">
            <stop stop-color="#FFFFFF" offset="0%"></stop>
            <stop stop-color="#30408D" offset="63.601055%"></stop>
            <stop stop-color="#161E2B" offset="100%"></stop>
        </radialGradient>
    </defs>
    <g id="Page-1" stroke="none" stroke-width="1" fill="none" fill-rule="evenodd">
        <g id="NIBM-2.1" transform="translate(-70.000000, -55.000000)">
            <g id="Fixed-header">
                <g id="Group-31-Copy" transform="translate(70.000000, 55.000000)">
                    <path d="M2.75722571,51.2524257 L9.86748286,17.7592257 L20.62294,17.7592257 C20.6233114,17.7595971 24.8754257,39.2645686 24.8754257,39.26494 L25.0421971,39.26494 C25.5309971,35.3489686 26.5583686,30.3265114 27.66374,25.1224257 L29.2200257,17.7592257 L37.3725114,17.7592257 L30.2626257,51.2524257 L19.9008829,51.2524257 C19.9005114,51.2520543 15.5332543,28.4091971 15.5332543,28.4088257 L15.4325971,28.4088257 C14.84834,32.6156257 13.7206829,37.9697686 12.4834543,43.7659114 L10.8926257,51.2524257 L2.75722571,51.2524257 Z" id="Fill-1" fill="#2E4289"></path>
                    <polygon id="Fill-3" fill="#2E4289" points="54.6696429 17.7591143 47.5593857 51.2523143 38.5648714 51.2523143 45.6751286 17.7591143"></polygon>
                    <path d="M72.2642514,30.8171314 C75.4425657,30.8171314 77.0757371,29.46476 77.0757371,26.8019886 C77.0757371,24.5503886 75.5721943,23.72136 73.3696229,23.72136 L70.3759086,23.72136 L68.8504514,30.8171314 L72.2642514,30.8171314 Z M65.7883943,45.3217886 L69.6375086,45.3217886 C72.8834229,45.3217886 75.3066229,43.7866743 75.3066229,40.43416 C75.3066229,37.7962743 73.7715086,36.6103029 70.83128,36.6103029 L67.6221371,36.6103029 L65.7883943,45.3217886 Z M62.9425086,17.7591886 L75.0774514,17.7591886 C82.4677657,17.7591886 85.98408,21.3115314 85.98408,26.0550457 C85.98408,30.1403886 83.4962514,32.6441886 80.3736514,33.7666457 C82.0974514,34.61276 84.6120229,36.6701029 84.6120229,40.5051029 C84.6120229,46.59616 79.5286514,51.2523886 71.5473943,51.2523886 L55.8326229,51.2523886 L62.9425086,17.7591886 Z" id="Fill-5" fill="#2E4289"></path>
                    <path d="M117.585966,40.4070086 C118.691337,35.2084943 120.29108,28.1049229 121.303594,24.1347229 L120.99308,24.1347229 C118.229651,31.3798086 113.446023,42.5501514 109.66488,51.2523514 L102.069909,51.2523514 C102.318394,42.3180086 102.449137,31.5183514 102.726594,24.1402943 L102.415709,24.1402943 C101.843337,28.0536657 100.542594,34.90058 99.31948,40.6729514 L97.0797657,51.2523514 L89.1453086,51.2523514 L96.2555657,17.7591514 L108.932051,17.7591514 C109.002251,23.8082371 108.995937,34.1681229 108.774937,39.0442371 L108.944309,39.0442371 C110.796251,33.79298 114.968137,24.9778657 118.167623,17.7591514 L131.039851,17.7591514 L123.929966,51.2523514 L115.300194,51.2523514 L117.585966,40.4070086 Z" id="Fill-7" fill="#2E4289"></path>
                    <polygon id="Fill-9" fill="#BB4758" points="139.285714 51.6285714 140.771429 51.6285714 140.771429 16.3428571 139.285714 16.3428571"></polygon>
                    <path d="M151.026349,25.5991914 C151.781463,25.5991914 152.286977,25.1950771 152.286977,24.5944771 L152.286977,24.5825914 C152.286977,23.93482 151.787406,23.5957057 151.056063,23.5957057 L149.902777,23.5957057 L149.902777,25.5991914 L151.026349,25.5991914 Z M149.486406,23.2153629 L151.085777,23.2153629 C152.055206,23.2153629 152.702977,23.7264486 152.702977,24.5647629 L152.702977,24.5766486 C152.702977,25.4985343 151.924091,25.9795343 151.002949,25.9795343 L149.902777,25.9795343 L149.902777,27.5432486 L149.486406,27.5432486 L149.486406,23.2153629 Z" id="Fill-11" fill="#000000"></path>
                    <path d="M160.232614,25.39134 L160.232614,25.3794543 C160.232614,24.3569114 159.489386,23.5185971 158.466843,23.5185971 C157.4443,23.5185971 156.712957,24.3450257 156.712957,25.3675686 L156.712957,25.3794543 C156.712957,26.4019971 157.456186,27.2403114 158.478729,27.2403114 C159.501271,27.2403114 160.232614,26.4138829 160.232614,25.39134 M156.278757,25.39134 L156.278757,25.3794543 C156.278757,24.1905114 157.164986,23.1438257 158.478729,23.1438257 C159.792471,23.1438257 160.666814,24.1782543 160.666814,25.3675686 L160.666814,25.3794543 C160.666814,26.5683971 159.780957,27.6147114 158.466843,27.6147114 C157.1531,27.6147114 156.278757,26.5802829 156.278757,25.39134" id="Fill-12" fill="#000000"></path>
                    <polygon id="Fill-13" fill="#000000" points="164.022709 23.2151771 164.480309 23.2151771 165.770651 26.9309486 166.995251 23.2032914 167.328051 23.2032914 168.54708 26.9309486 169.837051 23.2151771 170.271251 23.2151771 168.719794 27.5731486 168.368794 27.5731486 167.150137 23.9524629 165.925166 27.5731486 165.580109 27.5731486"></polygon>
                    <polygon id="Fill-14" fill="#000000" points="174.036423 23.2151771 177.145651 23.2151771 177.145651 23.5958914 174.452423 23.5958914 174.452423 25.17112 176.866337 25.17112 176.866337 25.5518343 174.452423 25.5518343 174.452423 27.16272 177.175366 27.16272 177.175366 27.5434343 174.036423 27.5434343"></polygon>
                    <path d="M182.832446,25.4388829 C183.516246,25.4388829 184.015817,25.0938257 184.015817,24.5051114 L184.015817,24.4935971 C184.015817,23.94054 183.58756,23.5958543 182.844331,23.5958543 L181.447389,23.5958543 L181.447389,25.4388829 L182.832446,25.4388829 Z M181.031017,23.21514 L182.874046,23.21514 C183.415217,23.21514 183.83716,23.38154 184.099017,23.6433971 C184.307017,23.8513971 184.431817,24.1429686 184.431817,24.4753971 L184.431817,24.4872829 C184.431817,25.2007971 183.920731,25.6290543 183.212789,25.7419686 L184.586703,27.5433971 L184.075246,27.5433971 L182.761503,25.8132829 L181.447389,25.8132829 L181.447389,27.5433971 L181.031017,27.5433971 L181.031017,23.21514 Z" id="Fill-15" fill="#000000"></path>
                    <polygon id="Fill-16" fill="#000000" points="188.394514 27.5432857 188.810514 27.5432857 188.810514 23.2150286 188.394514 23.2150286"></polygon>
                    <polygon id="Fill-17" fill="#000000" points="192.95822 23.2151771 193.35082 23.2151771 196.192249 26.8180343 196.192249 23.2151771 196.596734 23.2151771 196.596734 27.5434343 196.269877 27.5434343 193.362706 23.86332 193.362706 27.5434343 192.95822 27.5434343"></polygon>
                    <path d="M200.505426,25.39134 L200.505426,25.3794543 C200.505426,24.2079686 201.36194,23.1438257 202.663797,23.1438257 C203.37694,23.1438257 203.828969,23.3458829 204.262797,23.71434 L203.995369,24.0296829 C203.668511,23.73254 203.264397,23.5185971 202.640026,23.5185971 C201.641254,23.5185971 200.939626,24.3684257 200.939626,25.3675686 L200.939626,25.3794543 C200.939626,26.4554829 201.61154,27.2458829 202.710969,27.2458829 C203.234683,27.2458829 203.716054,27.0438257 204.01914,26.7882829 L204.01914,25.6349971 L202.645969,25.6349971 L202.645969,25.2602257 L204.417683,25.2602257 L204.417683,26.9609971 C204.01914,27.3116257 203.407026,27.6147114 202.693511,27.6147114 C201.337797,27.6147114 200.505426,26.6218829 200.505426,25.39134" id="Fill-18" fill="#000000"></path>
                    <path d="M149.29616,34.3056257 L149.29616,34.29374 C149.29616,33.1222543 150.152674,32.0581114 151.454531,32.0581114 C152.167674,32.0581114 152.619703,32.2601686 153.053531,32.6286257 L152.786103,32.9439686 C152.459246,32.6468257 152.055131,32.4328829 151.43076,32.4328829 C150.431989,32.4328829 149.73036,33.2827114 149.73036,34.2818543 L149.73036,34.29374 C149.73036,35.3697686 150.402274,36.1601686 151.501703,36.1601686 C152.025417,36.1601686 152.506789,35.9581114 152.809874,35.7025686 L152.809874,34.5492829 L151.436703,34.5492829 L151.436703,34.1745114 L153.208417,34.1745114 L153.208417,35.8752829 C152.809874,36.2259114 152.19776,36.5289971 151.484246,36.5289971 C150.128531,36.5289971 149.29616,35.5361686 149.29616,34.3056257" id="Fill-19" fill="#000000"></path>
                    <path d="M158.98376,34.3531686 C159.66756,34.3531686 160.167131,34.0081114 160.167131,33.4193971 L160.167131,33.4078829 C160.167131,32.8548257 159.738874,32.51014 158.995646,32.51014 L157.598703,32.51014 L157.598703,34.3531686 L158.98376,34.3531686 Z M157.182331,32.1297971 L159.02536,32.1297971 C159.566531,32.1297971 159.988474,32.2961971 160.250331,32.5576829 C160.458331,32.7656829 160.583131,33.0572543 160.583131,33.3896829 L160.583131,33.4015686 C160.583131,34.1150829 160.072046,34.54334 159.364103,34.6562543 L160.738017,36.4576829 L160.22656,36.4576829 L158.912817,34.7275686 L157.598703,34.7275686 L157.598703,36.4576829 L157.182331,36.4576829 L157.182331,32.1297971 Z" id="Fill-20" fill="#000000"></path>
                    <polygon id="Fill-21" fill="#000000" points="164.504043 32.1296486 167.613271 32.1296486 167.613271 32.5099914 164.920043 32.5099914 164.920043 34.0855914 167.333957 34.0855914 167.333957 34.4659343 164.920043 34.4659343 164.920043 36.0771914 167.642986 36.0771914 167.642986 36.4575343 164.504043 36.4575343"></polygon>
                    <path d="M174.36432,34.9059286 L173.312063,32.5696429 L172.253863,34.9059286 L174.36432,34.9059286 Z M173.121891,32.0997857 L173.51412,32.0997857 L175.50572,36.4577571 L175.054063,36.4577571 L174.53072,35.2807 L172.087463,35.2807 L171.558177,36.4577571 L171.130291,36.4577571 L173.121891,32.0997857 Z" id="Fill-22" fill="#000000"></path>
                    <polygon id="Fill-23" fill="#000000" points="179.854851 32.5159714 178.374709 32.5159714 178.374709 32.1296857 181.745794 32.1296857 181.745794 32.5159714 180.271223 32.5159714 180.271223 36.4575714 179.854851 36.4575714"></polygon>
                    <polygon id="Fill-24" fill="#000000" points="149.523586 40.7057114 150.749671 40.7057114 152.2131 43.0460829 153.684329 40.7057114 154.910414 40.7057114 154.910414 46.1148257 153.773471 46.1148257 153.773471 42.5112257 152.2131 44.8738829 152.183386 44.8738829 150.638243 42.5335114 150.638243 46.1148257 149.523586 46.1148257"></polygon>
                    <polygon id="Fill-25" fill="#000000" points="159.834257 46.1147143 160.978629 46.1147143 160.978629 40.7056 159.834257 40.7056"></polygon>
                    <polygon id="Fill-26" fill="#000000" points="165.903437 40.7057114 166.950866 40.7057114 169.559037 44.1161686 169.559037 40.7057114 170.688551 40.7057114 170.688551 46.1148257 169.715409 46.1148257 167.025523 42.59294 167.025523 46.1148257 165.903437 46.1148257"></polygon>
                    <path d="M176.697337,41.7383943 L176.697337,45.0819943 L177.648566,45.0819943 C178.651794,45.0819943 179.327794,44.4059943 179.327794,43.4254229 L179.327794,43.4101943 C179.327794,42.4296229 178.651794,41.7383943 177.648566,41.7383943 L176.697337,41.7383943 Z M175.560394,40.7058229 L177.648566,40.7058229 C179.342651,40.7058229 180.524166,41.8721086 180.524166,43.3953371 L180.524166,43.4101943 C180.524166,44.9334229 179.342651,46.1149371 177.648566,46.1149371 L175.560394,46.1149371 L175.560394,40.7058229 Z" id="Fill-27" fill="#000000"></path>
                    <path d="M184.705189,45.32736 L185.381189,44.5172743 C185.878903,44.9332743 186.384417,45.1858457 187.015846,45.1858457 C187.520989,45.1858457 187.83336,44.9704171 187.83336,44.6365029 L187.83336,44.6216457 C187.83336,44.2944171 187.639846,44.1458457 186.718703,43.9081314 C185.618903,43.6329029 184.920617,43.3283314 184.920617,42.2586171 L184.920617,42.24376 C184.920617,41.2702457 185.708046,40.6313886 186.807846,40.6313886 C187.603074,40.6313886 188.24936,40.8691029 188.806503,41.3148171 L188.204789,42.1769029 C187.72936,41.82776 187.260989,41.6346171 186.78556,41.6346171 C186.30976,41.6346171 186.05756,41.8649029 186.05756,42.13976 L186.05756,42.1546171 C186.05756,42.5186171 186.294903,42.65976 187.246131,42.8974743 C188.345931,43.1723314 188.969931,43.5812743 188.969931,44.5098457 L188.969931,44.5247029 C188.969931,45.58736 188.152789,46.1890743 186.99356,46.1890743 C186.16156,46.1890743 185.358903,45.9142171 184.705189,45.32736" id="Fill-28" fill="#000000"></path>
                    <path d="M0,3.71428571 C4.82857143,8.54285714 14.1142857,16.7142857 14.1142857,16.7142857 L27.4857143,2.97142857 C27.4857143,2.97142857 17.4801714,9.97211429 14.1258,9.62891429 C10.7714286,9.28571429 4.96265714,8.30477143 0,3.71428571" id="Fill-29" fill="#262223"></path>
                    <path d="M18.2,3.71428571 C18.2,5.76568571 16.5371143,7.42857143 14.4857143,7.42857143 C12.4343143,7.42857143 10.7714286,5.76568571 10.7714286,3.71428571 C10.7714286,1.66288571 12.4343143,0 14.4857143,0 C16.5371143,0 18.2,1.66288571 18.2,3.71428571" id="Fill-30" fill="url(#radialGradient-1)"></path>
                </g>
            </g>
        </g>
    </g>
</svg>